<svg width="67" height="67" viewBox="0 0 67 67" fill="none" xmlns="http://www.w3.org/2000/svg">
<rect width="67" height="67" rx="10" fill="#F5F5F5"/>
<path d="M21.8693 15.3528C25.2758 15.3528 32.9035 15.3528 32.9035 15.3528L31.45 17.807C31.45 17.807 23.0227 17.8071 21.467 17.8071C19.9381 17.8071 18.4629 18.2631 17.0413 19.175C15.6465 20.087 14.5065 21.2538 13.6214 22.6754C12.7362 24.0701 11.9852 25.6527 11.3683 27.423C10.2686 30.6149 9.71871 33.9274 9.71871 37.3607C9.71871 40.3649 10.3759 42.8862 11.6902 44.9247C12.3607 45.9708 13.2727 46.8023 14.4261 47.4192C15.6063 48.0093 16.9608 48.3043 18.4897 48.3043C21.7084 48.3043 24.5214 47.8333 27.6647 43.2231L30.8079 43.0136C29.5741 44.9448 26.4962 48.4921 24.565 49.5113C22.6606 50.5038 20.5416 51 18.208 51C14.1578 51 11.1939 49.7393 9.31637 47.218C7.43879 44.6967 6.5 41.3439 6.5 37.1596C6.5 31.9023 7.62655 27.1011 9.87964 22.7558C11.0062 20.5296 12.6021 18.7459 14.6675 17.4047C16.7328 16.0368 19.1334 15.3528 21.8693 15.3528Z" fill="black"/>
<path d="M57.5852 17.8876L44.0497 17.8875L31.4366 41.5467L28.3386 41.7077C28.3386 41.6004 39.9829 21.4298 40.9517 17.8875H33.2771L34.744 15.3528L57.7462 15.3528C58.6045 15.3528 59.0336 15.7149 59.0336 16.4391C59.0336 17.4048 58.5508 17.8876 57.5852 17.8876Z" fill="#E2001A"/>
<path d="M55.3254 12L58.2592 16.6101L55.3254 21.2203" stroke="#E2001A" stroke-width="2" stroke-linecap="round"/>
</svg>
