<svg width="54" height="40" viewBox="0 0 54 40" fill="none" xmlns="http://www.w3.org/2000/svg">
<path d="M15.8693 4.35281C19.2758 4.35281 26.9035 4.35281 26.9035 4.35281L25.45 6.80702C25.45 6.80702 17.0227 6.80708 15.467 6.80708C13.9381 6.80708 12.4629 7.26306 11.0413 8.17503C9.64649 9.087 8.50653 10.2538 7.62139 11.6754C6.73625 13.0701 5.98521 14.6527 5.36829 16.423C4.26857 19.6149 3.71871 22.9274 3.71871 26.3607C3.71871 29.3649 4.37586 31.8862 5.69017 33.9247C6.36073 34.9708 7.2727 35.8023 8.42607 36.4192C9.60626 37.0093 10.9608 37.3043 12.4897 37.3043C15.7084 37.3043 18.5214 36.8333 21.6647 32.2231L24.8079 32.0136C23.5741 33.9448 20.4962 37.4921 18.565 38.5113C16.6606 39.5038 14.5416 40 12.208 40C8.15784 40 5.19395 38.7393 3.31637 36.218C1.43879 33.6967 0.5 30.3439 0.5 26.1596C0.5 20.9023 1.62655 16.1011 3.87964 11.7558C5.00619 9.52957 6.60213 7.74587 8.66747 6.40474C10.7328 5.03679 13.1334 4.35281 15.8693 4.35281Z" fill="black"/>
<path d="M51.5852 6.88756L38.0497 6.88754L25.4366 30.5467L22.3386 30.7077C22.3386 30.6004 33.9829 10.4298 34.9517 6.88754H27.2771L28.744 4.35281L51.7462 4.35283C52.6045 4.35283 53.0336 4.71493 53.0336 5.43914C53.0336 6.40475 52.5508 6.88756 51.5852 6.88756Z" fill="#E2001A"/>
<path d="M49.3254 1L52.2592 5.61013L49.3254 10.2203" stroke="#E2001A" stroke-width="2" stroke-linecap="round"/>
</svg>
